<svg width="80" height="80" viewBox="0 0 80 80" fill="none" xmlns="http://www.w3.org/2000/svg">
<g clip-path="url(#clip0)">
<path d="M28.8925 45.05C28.8925 41.7033 24.1718 39.1797 17.9116 39.1797C11.6514 39.1797 6.93066 41.7033 6.93066 45.05C6.93066 48.3967 11.6514 50.9203 17.9116 50.9203C24.1718 50.9203 28.8925 48.3967 28.8925 45.05ZM9.27426 45.05C9.27426 43.5773 12.56 41.5234 17.9114 41.5234C23.2629 41.5234 26.5486 43.5775 26.5486 45.05C26.5486 46.5225 23.2629 48.5766 17.9114 48.5766C12.56 48.5766 9.27426 46.5226 9.27426 45.05Z" fill="url(#paint0_linear)"/>
<path d="M55.816 36.2617C56.4634 36.2617 56.9879 35.7372 56.9879 35.0898C56.9879 34.4425 56.4634 33.918 55.816 33.918H33.0454C32.3981 33.918 31.8735 34.4425 31.8735 35.0898C31.8735 35.7372 32.3981 36.2617 33.0454 36.2617H55.816Z" fill="url(#paint1_linear)"/>
<path d="M71.1767 38.9169V12.6573C71.1767 10.688 69.5745 9.08594 67.6053 9.08594H3.57141C1.60219 9.08594 0 10.6881 0 12.6573V53.9027C0 55.872 1.60219 57.4741 3.57141 57.4741H10.6347C11.282 57.4741 11.8066 56.9495 11.8066 56.3022C11.8066 55.6548 11.282 55.1303 10.6347 55.1303H3.57141C2.89438 55.1303 2.34375 54.5797 2.34375 53.9027V27.65H68.833V37.8419C66.9955 37.1634 65.0102 36.7923 62.9398 36.7923C58.6941 36.7923 54.8059 38.3517 51.8172 40.9273H44.4836C43.8363 40.9273 43.3117 41.4519 43.3117 42.0992C43.3117 42.7466 43.8363 43.2711 44.4836 43.2711H49.5675C47.2598 46.1813 45.8798 49.8586 45.8798 53.8525C45.8798 54.2823 45.8963 54.7084 45.9277 55.1305H15.3202C14.6728 55.1305 14.1483 55.655 14.1483 56.3023C14.1483 56.9497 14.6728 57.4742 15.3202 57.4742H46.2681C47.9334 65.1472 54.7755 70.9127 62.9398 70.9127C66.8291 70.9127 70.4923 69.6373 73.5339 67.2247C74.0409 66.8225 74.1259 66.0853 73.7237 65.5783C73.3217 65.0714 72.5845 64.9862 72.0773 65.3884C69.4545 67.4691 66.2948 68.5687 62.94 68.5687C54.8255 68.5687 48.2237 61.967 48.2237 53.8523C48.2237 45.7377 54.8255 39.1359 62.94 39.1359C71.0547 39.1359 77.6564 45.7377 77.6564 53.8523C77.6564 56.8605 76.7544 59.7536 75.0477 62.2184C74.6792 62.7505 74.8119 63.4806 75.3439 63.8491C75.8761 64.2177 76.6061 64.0847 76.9745 63.5528C78.9538 60.6939 80 57.3397 80 53.8525C80 47.4308 76.433 41.8272 71.1767 38.9169ZM2.34375 25.3062V21.3136H53.4733C54.1206 21.3136 54.6452 20.7891 54.6452 20.1417C54.6452 19.4944 54.1206 18.9698 53.4733 18.9698H2.34375V12.6573C2.34375 11.9803 2.89438 11.4297 3.57141 11.4297H67.6052C68.2822 11.4297 68.8328 11.9803 68.8328 12.6573V18.9698H58.1586C57.5112 18.9698 56.9867 19.4944 56.9867 20.1417C56.9867 20.7891 57.5112 21.3136 58.1586 21.3136H68.8328V25.3062H2.34375Z" fill="url(#paint2_linear)"/>
<path fill-rule="evenodd" clip-rule="evenodd" d="M69.6484 47.953C70.1171 48.4217 70.1171 49.1815 69.6484 49.6501L58.4484 60.8501C57.9798 61.3187 57.22 61.3187 56.7514 60.8501C56.2827 60.3815 56.2827 59.6217 56.7514 59.153L67.9514 47.953C68.42 47.4844 69.1798 47.4844 69.6484 47.953Z" fill="url(#paint3_linear)"/>
<path fill-rule="evenodd" clip-rule="evenodd" d="M56.7514 47.953C57.22 47.4844 57.9798 47.4844 58.4484 47.953L69.6484 59.153C70.1171 59.6217 70.1171 60.3815 69.6484 60.8501C69.1798 61.3187 68.42 61.3187 67.9514 60.8501L56.7514 49.6501C56.2827 49.1815 56.2827 48.4217 56.7514 47.953Z" fill="url(#paint4_linear)"/>
</g>
<defs>
<linearGradient id="paint0_linear" x1="28.8925" y1="39.1797" x2="20.3312" y2="57.5045" gradientUnits="userSpaceOnUse">
<stop stop-color="#BD8727"/>
<stop offset="0.483111" stop-color="#FFD574"/>
<stop offset="0.611179" stop-color="#FECA50"/>
<stop offset="1" stop-color="#BD8727"/>
</linearGradient>
<linearGradient id="paint1_linear" x1="56.9879" y1="33.918" x2="56.6268" y2="38.3451" gradientUnits="userSpaceOnUse">
<stop stop-color="#BD8727"/>
<stop offset="0.483111" stop-color="#FFD574"/>
<stop offset="0.611179" stop-color="#FECA50"/>
<stop offset="1" stop-color="#BD8727"/>
</linearGradient>
<linearGradient id="paint2_linear" x1="80" y1="9.08593" x2="25.4714" y2="89.8196" gradientUnits="userSpaceOnUse">
<stop stop-color="#BD8727"/>
<stop offset="0.483111" stop-color="#FFD574"/>
<stop offset="0.611179" stop-color="#FECA50"/>
<stop offset="1" stop-color="#BD8727"/>
</linearGradient>
<linearGradient id="paint3_linear" x1="69.9999" y1="47.6016" x2="57.1863" y2="62.2634" gradientUnits="userSpaceOnUse">
<stop stop-color="#BD8727"/>
<stop offset="0.483111" stop-color="#FFD574"/>
<stop offset="0.611179" stop-color="#FECA50"/>
<stop offset="1" stop-color="#BD8727"/>
</linearGradient>
<linearGradient id="paint4_linear" x1="69.9999" y1="47.6016" x2="57.1863" y2="62.2634" gradientUnits="userSpaceOnUse">
<stop stop-color="#BD8727"/>
<stop offset="0.483111" stop-color="#FFD574"/>
<stop offset="0.611179" stop-color="#FECA50"/>
<stop offset="1" stop-color="#BD8727"/>
</linearGradient>
<clipPath id="clip0">
<rect width="80" height="80" fill="white"/>
</clipPath>
</defs>
</svg>
