<svg width="52" height="52" viewBox="0 0 52 52" fill="none" xmlns="http://www.w3.org/2000/svg">
<circle cx="26" cy="26" r="26" fill="#FFBF00"/>
<path d="M10.624 38.2048C10.624 37.9582 10.624 37.7396 10.624 37.4972C10.708 37.4896 10.7858 37.4765 10.8637 37.4763C11.4881 37.4747 12.1126 37.4753 12.7372 37.4753C12.8181 37.4753 12.8992 37.4753 12.996 37.4753C13.0083 37.4152 13.0229 37.3656 13.0272 37.3154C13.0325 37.2555 13.0291 37.195 13.0291 37.1347C13.0291 29.4045 13.0291 21.6743 13.0286 13.944C13.0286 13.8389 13.0213 13.734 13.0164 13.6024C12.2135 13.6024 11.4303 13.6024 10.6299 13.6024C10.6299 13.3516 10.6299 13.1284 10.6299 12.8814C10.7249 12.8744 10.8168 12.8619 10.9085 12.8619C13.0331 12.8609 15.1577 12.8611 17.2823 12.8611C18.4634 12.8611 19.6446 12.8563 20.8256 12.8627C21.7213 12.8675 22.618 12.8633 23.5123 12.9041C25.2702 12.9843 27.0058 13.2192 28.692 13.7401C29.7255 14.0592 30.7086 14.4866 31.6259 15.0585C33.1724 16.0226 34.2804 17.3481 34.9915 19.0041C35.4143 19.9887 35.6799 21.0155 35.8474 22.0697C35.9927 22.9838 36.0573 23.9044 36.0663 24.8281C36.082 26.4717 35.9597 28.1028 35.5613 29.7049C35.3016 30.749 34.9262 31.7487 34.3872 32.6864C33.5628 34.1205 32.4012 35.2161 30.9573 36.0343C29.5991 36.8042 28.1444 37.3184 26.6212 37.658C25.8342 37.8334 25.0391 37.9654 24.2376 38.0472C23.5907 38.1133 22.9404 38.165 22.2907 38.1797C18.4768 38.2653 14.6619 38.1969 10.8476 38.2172C10.7814 38.218 10.7151 38.2102 10.624 38.2048ZM20.237 37.4753C20.3479 37.4753 20.4151 37.4753 20.4824 37.4753C20.9167 37.4749 21.3512 37.4745 21.7855 37.4743C22.3777 37.4741 22.9624 37.4058 23.5373 37.2692C25.1247 36.8918 26.3096 35.9998 27.0686 34.5676C27.416 33.9119 27.6553 33.2169 27.8381 32.5021C28.0639 31.6189 28.217 30.7227 28.2922 29.8152C28.3556 29.0488 28.4253 28.2814 28.4426 27.5134C28.4697 26.3093 28.4562 25.1044 28.4579 23.8997C28.4591 22.9895 28.4187 22.081 28.3356 21.1741C28.2592 20.3408 28.1444 19.5137 27.9588 18.6972C27.7564 17.8068 27.4741 16.9444 27.0266 16.1394C26.4262 15.0595 25.5427 14.3371 24.3344 13.9943C23.4674 13.7483 22.5821 13.6488 21.6873 13.6098C21.2807 13.5922 20.8729 13.6036 20.4657 13.6032C20.3997 13.6032 20.3336 13.61 20.2366 13.6153C20.237 21.568 20.237 29.507 20.237 37.4753Z" fill="black"/>
<path d="M40.9196 32.2344C41.3857 32.2374 41.8399 32.2995 42.2795 32.4498C43.2539 32.783 43.8793 33.4282 44.0799 34.44C44.2211 35.1529 44.2066 35.8651 43.9894 36.5618C43.6535 37.6386 42.9099 38.2809 41.7924 38.4961C41.2228 38.6058 40.6501 38.61 40.0754 38.5071C39.2119 38.3522 38.5575 37.9063 38.1465 37.1453C37.5793 36.0956 37.5277 35.0056 38.0228 33.9217C38.4518 32.9827 39.2062 32.4301 40.2523 32.2914C40.4737 32.2625 40.6972 32.2531 40.9196 32.2344Z" fill="black"/>
</svg>
