<svg width="246" height="60" viewBox="0 0 246 60" fill="none" xmlns="http://www.w3.org/2000/svg">
<ellipse cx="28.1875" cy="28.1572" rx="28.1719" ry="28.1572" fill="#F8B017"/>
<path d="M11.5272 41.3758C11.5272 41.1088 11.5272 40.872 11.5272 40.6095C11.6182 40.6013 11.7026 40.5871 11.7869 40.5869C12.4635 40.5852 13.1401 40.5858 13.8169 40.5858C13.9046 40.5858 13.9925 40.5858 14.0974 40.5858C14.1106 40.5207 14.1265 40.467 14.1312 40.4126C14.1369 40.3477 14.1332 40.2822 14.1332 40.2169C14.1332 31.8453 14.1332 23.4737 14.1327 15.1021C14.1327 14.9883 14.1248 14.8747 14.1195 14.7322C13.2494 14.7322 12.4008 14.7322 11.5336 14.7322C11.5336 14.4606 11.5336 14.2188 11.5336 13.9514C11.6365 13.9437 11.7361 13.9302 11.8355 13.9302C14.1376 13.9292 16.4397 13.9294 18.7417 13.9294C20.0214 13.9294 21.3013 13.9241 22.581 13.9311C23.5515 13.9363 24.5231 13.9318 25.4921 13.9759C27.3969 14.0628 29.2774 14.3172 31.1045 14.8812C32.2243 15.2268 33.2896 15.6897 34.2835 16.309C35.9591 17.3532 37.1597 18.7886 37.9302 20.582C38.3884 21.6483 38.6761 22.7604 38.8576 23.902C39.0151 24.892 39.0851 25.8889 39.0948 26.8893C39.1118 28.6692 38.9793 30.4356 38.5476 32.1707C38.2663 33.3014 37.8595 34.3841 37.2754 35.3995C36.3822 36.9527 35.1235 38.1391 33.559 39.0253C32.0874 39.859 30.5112 40.4158 28.8607 40.7836C28.0079 40.9736 27.1465 41.1166 26.278 41.2052C25.5771 41.2768 24.8724 41.3327 24.1685 41.3486C20.036 41.4413 15.9024 41.3673 11.7695 41.3893C11.6977 41.3901 11.6259 41.3816 11.5272 41.3758ZM21.9432 40.5858C22.0634 40.5858 22.1362 40.5858 22.2091 40.5858C22.6797 40.5854 23.1505 40.5849 23.621 40.5847C24.2628 40.5845 24.8963 40.5105 25.5192 40.3625C27.2392 39.9538 28.5231 38.9878 29.3454 37.4369C29.7219 36.7268 29.9812 35.974 30.1793 35.1999C30.4239 34.2435 30.5898 33.2729 30.6713 32.2902C30.7399 31.4602 30.8155 30.6291 30.8342 29.7973C30.8636 28.4933 30.849 27.1885 30.8508 25.8839C30.8521 24.8981 30.8084 23.9142 30.7183 22.9321C30.6355 22.0296 30.5112 21.1339 30.31 20.2497C30.0907 19.2854 29.7849 18.3514 29.2999 17.4796C28.6494 16.3101 27.6921 15.5278 26.3829 15.1565C25.4435 14.8902 24.4842 14.7824 23.5146 14.7402C23.0741 14.7211 22.6322 14.7335 22.191 14.733C22.1194 14.733 22.0479 14.7404 21.9428 14.7461C21.9432 23.3586 21.9432 31.9563 21.9432 40.5858Z" fill="black"/>
<path d="M44.3533 34.9082C44.8583 34.9115 45.3505 34.9787 45.8268 35.1415C46.8826 35.5023 47.5603 36.2011 47.7776 37.2968C47.9306 38.0689 47.9149 38.8402 47.6795 39.5946C47.3156 40.7609 46.5098 41.4564 45.2991 41.6894C44.6819 41.8083 44.0613 41.8128 43.4386 41.7014C42.503 41.5336 41.7939 41.0507 41.3485 40.2266C40.734 39.0898 40.6781 37.9094 41.2145 36.7356C41.6793 35.7186 42.4968 35.1202 43.6303 34.97C43.8701 34.9387 44.1124 34.9284 44.3533 34.9082Z" fill="black"/>
<path d="M68.1671 35.9102V8.80579H75.0304C77.3963 8.80579 79.2377 9.10695 80.5546 9.70927C81.8714 10.2893 82.7977 11.2151 83.3334 12.4866C83.8691 13.7359 84.1369 15.3644 84.1369 17.3721V27.21C84.1369 29.24 83.8691 30.902 83.3334 32.1959C82.7977 33.4674 81.8714 34.4044 80.5546 35.0067C79.26 35.609 77.441 35.9102 75.0974 35.9102H68.1671ZM74.16 31.7608H75.0974C76.0125 31.7608 76.6709 31.627 77.0727 31.3593C77.4744 31.0916 77.72 30.6901 77.8092 30.1547C77.9208 29.6193 77.9766 28.95 77.9766 28.1469V16.3348C77.9766 15.5317 77.9097 14.8847 77.7758 14.394C77.6642 13.9032 77.4075 13.5463 77.0057 13.3232C76.604 13.1001 75.9567 12.9886 75.0639 12.9886H74.16V31.7608Z" fill="white"/>
<path d="M94.1452 36.2448C92.7391 36.2448 91.5338 35.9994 90.5294 35.5086C89.525 34.9955 88.755 34.2594 88.2193 33.3001C87.6836 32.3185 87.4158 31.1474 87.4158 29.7866V22.6926C87.4158 21.3095 87.6836 20.1383 88.2193 19.1791C88.755 18.2198 89.525 17.4948 90.5294 17.004C91.5561 16.4909 92.7614 16.2344 94.1452 16.2344C95.5737 16.2344 96.7566 16.4798 97.694 16.9706C98.6538 17.4613 99.368 18.1864 99.8367 19.1456C100.328 20.1048 100.573 21.2872 100.573 22.6926V26.5742H92.806V30.2885C92.806 30.7793 92.8618 31.1808 92.9734 31.4931C93.085 31.8055 93.2413 32.0285 93.4421 32.1624C93.643 32.2962 93.8774 32.3632 94.1452 32.3632C94.413 32.3632 94.6474 32.3074 94.8483 32.1959C95.0715 32.062 95.2389 31.8612 95.3505 31.5935C95.4844 31.3258 95.5513 30.9578 95.5513 30.4893V28.4481H100.573V30.322C100.573 32.2851 100.004 33.7686 98.8658 34.7724C97.7275 35.754 96.154 36.2448 94.1452 36.2448ZM92.806 24.0311H95.5513V22.0903C95.5513 21.5772 95.4844 21.1756 95.3505 20.8856C95.2389 20.5956 95.0715 20.3949 94.8483 20.2833C94.6474 20.1718 94.4019 20.116 94.1117 20.116C93.8439 20.116 93.6095 20.1829 93.4086 20.3168C93.2301 20.4506 93.085 20.6849 92.9734 21.0195C92.8618 21.3318 92.806 21.7891 92.806 22.3914V24.0311Z" fill="white"/>
<path d="M104.18 35.9102V8.80579H115.898V12.8547H110.173V19.681H115.161V23.8638H110.173V35.9102H104.18Z" fill="white"/>
<path d="M118.6 35.9102V16.569H124.057V35.9102H118.6ZM118.566 13.2897V9.50849H124.057V13.2897H118.566Z" fill="white"/>
<path d="M136.964 35.9102V8.80579H148.682V12.8547H142.957V19.681H147.945V23.8638H142.957V35.9102H136.964Z" fill="white"/>
<path d="M157.875 36.2448C156.491 36.2448 155.286 36.0105 154.259 35.5421C153.255 35.0736 152.474 34.3709 151.916 33.434C151.38 32.497 151.112 31.3258 151.112 29.9204V22.5587C151.112 21.1533 151.38 19.9822 151.916 19.0452C152.474 18.1083 153.255 17.4056 154.259 16.9371C155.286 16.4686 156.491 16.2344 157.875 16.2344C159.259 16.2344 160.453 16.4686 161.457 16.9371C162.484 17.4056 163.276 18.1083 163.834 19.0452C164.392 19.9822 164.671 21.1533 164.671 22.5587V29.9204C164.671 31.3258 164.392 32.497 163.834 33.434C163.276 34.3709 162.484 35.0736 161.457 35.5421C160.453 36.0105 159.259 36.2448 157.875 36.2448ZM157.908 32.6309C158.266 32.6309 158.545 32.5416 158.745 32.3632C158.946 32.1624 159.08 31.8947 159.147 31.5601C159.236 31.2031 159.281 30.7793 159.281 30.2885V22.1907C159.281 21.6999 159.236 21.2872 159.147 20.9526C159.08 20.5956 158.946 20.3279 158.745 20.1495C158.545 19.9487 158.266 19.8483 157.908 19.8483C157.551 19.8483 157.272 19.9487 157.071 20.1495C156.871 20.3279 156.725 20.5956 156.636 20.9526C156.547 21.2872 156.502 21.6999 156.502 22.1907V30.2885C156.502 30.7793 156.547 31.2031 156.636 31.5601C156.725 31.8947 156.871 32.1624 157.071 32.3632C157.272 32.5416 157.551 32.6309 157.908 32.6309Z" fill="white"/>
<path d="M168.1 35.9102V16.569H173.557V19.7814C174.182 18.666 174.807 17.8183 175.432 17.2383C176.057 16.6359 176.815 16.3348 177.708 16.3348C177.887 16.3348 178.043 16.3459 178.177 16.3682C178.311 16.3682 178.434 16.3905 178.545 16.4352V21.856C178.3 21.7445 178.021 21.6553 177.708 21.5883C177.418 21.4991 177.106 21.4545 176.771 21.4545C176.146 21.4545 175.566 21.6218 175.03 21.9564C174.494 22.291 174.003 22.7484 173.557 23.3284V35.9102H168.1Z" fill="white"/>
<path d="M193.801 35.9102V24.8342L188.645 8.80579H194.303L196.881 17.3721L199.191 8.80579H204.615L199.559 24.8342V35.9102H193.801Z" fill="white"/>
<path d="M212.834 36.2448C211.45 36.2448 210.245 36.0105 209.218 35.5421C208.214 35.0736 207.432 34.3709 206.874 33.434C206.339 32.497 206.071 31.3258 206.071 29.9204V22.5587C206.071 21.1533 206.339 19.9822 206.874 19.0452C207.432 18.1083 208.214 17.4056 209.218 16.9371C210.245 16.4686 211.45 16.2344 212.834 16.2344C214.218 16.2344 215.412 16.4686 216.416 16.9371C217.443 17.4056 218.235 18.1083 218.793 19.0452C219.351 19.9822 219.63 21.1533 219.63 22.5587V29.9204C219.63 31.3258 219.351 32.497 218.793 33.434C218.235 34.3709 217.443 35.0736 216.416 35.5421C215.412 36.0105 214.218 36.2448 212.834 36.2448ZM212.867 32.6309C213.224 32.6309 213.503 32.5416 213.704 32.3632C213.905 32.1624 214.039 31.8947 214.106 31.5601C214.195 31.2031 214.24 30.7793 214.24 30.2885V22.1907C214.24 21.6999 214.195 21.2872 214.106 20.9526C214.039 20.5956 213.905 20.3279 213.704 20.1495C213.503 19.9487 213.224 19.8483 212.867 19.8483C212.51 19.8483 212.231 19.9487 212.03 20.1495C211.829 20.3279 211.684 20.5956 211.595 20.9526C211.506 21.2872 211.461 21.6999 211.461 22.1907V30.2885C211.461 30.7793 211.506 31.2031 211.595 31.5601C211.684 31.8947 211.829 32.1624 212.03 32.3632C212.231 32.5416 212.51 32.6309 212.867 32.6309Z" fill="white"/>
<path d="M226.406 36.2448C225.625 36.2448 224.956 36.0552 224.398 35.6759C223.862 35.2744 223.46 34.7278 223.192 34.0363C222.925 33.3447 222.791 32.5751 222.791 31.7274V16.569H228.248V31.0916C228.248 31.5601 228.326 31.9282 228.482 32.1959C228.661 32.4412 228.962 32.5639 229.386 32.5639C229.632 32.5639 229.888 32.5082 230.156 32.3966C230.424 32.2628 230.703 32.1178 230.993 31.9616V16.569H236.417V35.9102H230.993V34.1367C230.301 34.7836 229.565 35.2967 228.783 35.6759C228.025 36.0552 227.232 36.2448 226.406 36.2448Z" fill="white"/>
<path d="M239.987 35.9107V30.7576H245.143V35.9107H239.987Z" fill="#F8B017"/>
<path d="M158.943 57.2924C158.056 57.2924 157.416 56.9573 157.02 56.2869C156.637 55.6166 156.446 54.5034 156.446 52.9473V51.026C156.446 50.1163 156.511 49.3323 156.643 48.6739C156.775 48.0155 157.014 47.5068 157.362 47.1477C157.721 46.7766 158.23 46.5911 158.889 46.5911C159.296 46.5911 159.649 46.6868 159.949 46.8784C160.26 47.0579 160.518 47.2614 160.721 47.4888V42.587H162.033V57.1308H160.721V56.3947C160.518 56.6221 160.266 56.8316 159.967 57.0231C159.679 57.2027 159.338 57.2924 158.943 57.2924ZM159.212 56.251C159.5 56.251 159.769 56.1852 160.021 56.0535C160.284 55.9219 160.518 55.7603 160.721 55.5687V48.3507C160.542 48.1831 160.32 48.0215 160.057 47.8659C159.793 47.6983 159.5 47.6145 159.176 47.6145C158.601 47.6145 158.218 47.8719 158.027 48.3866C157.847 48.8894 157.757 49.6255 157.757 50.5951V53.055C157.757 53.7493 157.793 54.3358 157.865 54.8146C157.949 55.2934 158.092 55.6525 158.296 55.8919C158.512 56.1313 158.817 56.251 159.212 56.251Z" fill="#F8B017"/>
<path d="M166.849 57.2924C166.202 57.2924 165.669 57.1668 165.25 56.9154C164.843 56.652 164.537 56.2211 164.334 55.6226C164.142 55.0241 164.046 54.2281 164.046 53.2345V50.6131C164.046 49.5836 164.148 48.7816 164.352 48.2071C164.555 47.6205 164.867 47.2075 165.286 46.9681C165.705 46.7168 166.232 46.5911 166.867 46.5911C167.597 46.5911 168.154 46.7467 168.537 47.0579C168.921 47.3691 169.184 47.842 169.328 48.4764C169.484 49.0988 169.561 49.9008 169.561 50.8824V51.8161H165.358V53.6296C165.358 54.2999 165.406 54.8326 165.501 55.2276C165.609 55.6106 165.771 55.8859 165.986 56.0535C166.214 56.2211 166.501 56.3049 166.849 56.3049C167.112 56.3049 167.352 56.257 167.567 56.1613C167.783 56.0535 167.951 55.856 168.07 55.5687C168.202 55.2695 168.268 54.8505 168.268 54.3119V53.5936H169.543V54.1682C169.543 55.1139 169.346 55.874 168.951 56.4485C168.567 57.0111 167.867 57.2924 166.849 57.2924ZM165.358 51.0619H168.268V50.2001C168.268 49.6495 168.238 49.1826 168.178 48.7996C168.118 48.4046 167.986 48.1053 167.783 47.9018C167.591 47.6863 167.28 47.5786 166.849 47.5786C166.489 47.5786 166.196 47.6564 165.968 47.812C165.753 47.9676 165.597 48.2489 165.501 48.6559C165.406 49.051 165.358 49.6195 165.358 50.3617V51.0619Z" fill="#F8B017"/>
<path d="M172.158 57.1308V47.7043H170.828V46.7527H172.158V45.6754C172.158 45.1247 172.206 44.6579 172.302 44.2748C172.409 43.8798 172.607 43.5806 172.894 43.3771C173.194 43.1616 173.619 43.0539 174.17 43.0539C174.314 43.0539 174.469 43.0658 174.637 43.0898C174.817 43.1018 174.978 43.1197 175.122 43.1437V44.1312C175.002 44.1073 174.882 44.0893 174.763 44.0773C174.643 44.0654 174.523 44.0594 174.403 44.0594C174.008 44.0594 173.757 44.1671 173.649 44.3826C173.541 44.598 173.487 44.9871 173.487 45.5497V46.7527H177.421V57.1308H176.11V47.7043H173.487V57.1308H172.158ZM176.218 45.3162V43.5387H177.439V45.3162H176.218Z" fill="#F8B017"/>
<path d="M180.46 57.1308V47.7043H179.131V46.7527H180.46V45.6754C180.46 45.1606 180.502 44.7058 180.586 44.3107C180.67 43.9157 180.843 43.6045 181.107 43.3771C181.382 43.1496 181.802 43.0359 182.364 43.0359C182.556 43.0359 182.736 43.0479 182.903 43.0718C183.083 43.0838 183.257 43.1137 183.424 43.1616V44.1312C183.317 44.1073 183.191 44.0893 183.047 44.0773C182.915 44.0534 182.796 44.0414 182.688 44.0414C182.293 44.0414 182.041 44.1671 181.933 44.4185C181.837 44.6579 181.79 45.0349 181.79 45.5497V46.7527H183.46V47.7043H181.79V57.1308H180.46Z" fill="#F8B017"/>
<path d="M187.369 57.2924C186.662 57.2924 186.105 57.1428 185.698 56.8436C185.303 56.5323 185.022 56.0894 184.854 55.5149C184.686 54.9283 184.602 54.2161 184.602 53.3782V50.5053C184.602 49.6674 184.686 48.9612 184.854 48.3866C185.022 47.8001 185.303 47.3572 185.698 47.0579C186.105 46.7467 186.662 46.5911 187.369 46.5911C188.1 46.5911 188.662 46.7467 189.058 47.0579C189.453 47.3572 189.734 47.8001 189.902 48.3866C190.07 48.9612 190.154 49.6674 190.154 50.5053V53.3782C190.154 54.2161 190.07 54.9283 189.902 55.5149C189.734 56.0894 189.453 56.5323 189.058 56.8436C188.662 57.1428 188.1 57.2924 187.369 57.2924ZM187.369 56.3049C187.824 56.3049 188.153 56.1852 188.357 55.9458C188.573 55.7064 188.704 55.3712 188.752 54.9403C188.8 54.4974 188.824 54.0006 188.824 53.45V50.4335C188.824 49.8709 188.8 49.3801 188.752 48.9612C188.704 48.5302 188.573 48.1951 188.357 47.9557C188.153 47.7043 187.824 47.5786 187.369 47.5786C186.914 47.5786 186.585 47.7043 186.381 47.9557C186.177 48.1951 186.052 48.5302 186.004 48.9612C185.956 49.3801 185.932 49.8709 185.932 50.4335V53.45C185.932 54.0006 185.956 54.4974 186.004 54.9403C186.052 55.3712 186.177 55.7064 186.381 55.9458C186.585 56.1852 186.914 56.3049 187.369 56.3049Z" fill="#F8B017"/>
<path d="M192.245 57.1308V46.7527H193.574V48.1711C193.91 47.6205 194.293 47.2315 194.724 47.004C195.155 46.7646 195.568 46.6449 195.964 46.6449C195.999 46.6449 196.035 46.6449 196.071 46.6449C196.107 46.6449 196.149 46.6509 196.197 46.6629V48.0634C196.113 48.0275 196.011 48.0036 195.892 47.9916C195.772 47.9676 195.658 47.9557 195.55 47.9557C195.143 47.9557 194.772 48.0514 194.437 48.243C194.113 48.4345 193.826 48.7397 193.574 49.1587V57.1308H192.245Z" fill="#F8B017"/>
<path d="M197.381 59.7164V58.693C197.979 58.693 198.428 58.6451 198.728 58.5493C199.039 58.4655 199.243 58.3398 199.339 58.1723C199.446 58.0166 199.5 57.8311 199.5 57.6156C199.5 57.4241 199.464 57.1727 199.393 56.8615C199.321 56.5503 199.243 56.2271 199.159 55.8919L197.021 46.7527H198.333L200.129 55.5867L201.872 46.7527H203.201L200.686 57.867C200.59 58.3099 200.417 58.663 200.165 58.9264C199.926 59.2017 199.602 59.3992 199.195 59.5189C198.8 59.6506 198.309 59.7164 197.722 59.7164H197.381Z" fill="#F8B017"/>
<path d="M207.259 57.2924C206.552 57.2924 205.995 57.1428 205.588 56.8436C205.193 56.5323 204.911 56.0894 204.743 55.5149C204.576 54.9283 204.492 54.2161 204.492 53.3782V50.5053C204.492 49.6674 204.576 48.9612 204.743 48.3866C204.911 47.8001 205.193 47.3572 205.588 47.0579C205.995 46.7467 206.552 46.5911 207.259 46.5911C207.989 46.5911 208.552 46.7467 208.947 47.0579C209.342 47.3572 209.624 47.8001 209.792 48.3866C209.959 48.9612 210.043 49.6674 210.043 50.5053V53.3782C210.043 54.2161 209.959 54.9283 209.792 55.5149C209.624 56.0894 209.342 56.5323 208.947 56.8436C208.552 57.1428 207.989 57.2924 207.259 57.2924ZM207.259 56.3049C207.714 56.3049 208.043 56.1852 208.247 55.9458C208.462 55.7064 208.594 55.3712 208.642 54.9403C208.69 54.4974 208.714 54.0006 208.714 53.45V50.4335C208.714 49.8709 208.69 49.3801 208.642 48.9612C208.594 48.5302 208.462 48.1951 208.247 47.9557C208.043 47.7043 207.714 47.5786 207.259 47.5786C206.803 47.5786 206.474 47.7043 206.27 47.9557C206.067 48.1951 205.941 48.5302 205.893 48.9612C205.845 49.3801 205.821 49.8709 205.821 50.4335V53.45C205.821 54.0006 205.845 54.4974 205.893 54.9403C205.941 55.3712 206.067 55.7064 206.27 55.9458C206.474 56.1852 206.803 56.3049 207.259 56.3049Z" fill="#F8B017"/>
<path d="M213.572 57.2924C213.224 57.2924 212.931 57.2027 212.691 57.0231C212.452 56.8436 212.266 56.5922 212.134 56.269C212.015 55.9458 211.955 55.5508 211.955 55.0839V46.7527H213.284V54.7967C213.284 55.3353 213.362 55.7124 213.518 55.9278C213.685 56.1433 213.937 56.251 214.272 56.251C214.584 56.251 214.895 56.1553 215.206 55.9637C215.53 55.7722 215.829 55.5268 216.105 55.2276V46.7527H217.416V57.1308H216.105V55.9817C215.769 56.3647 215.386 56.682 214.955 56.9333C214.524 57.1727 214.063 57.2924 213.572 57.2924Z" fill="#F8B017"/>
<path d="M219.7 57.1308V55.1558H221.083V57.1308H219.7Z" fill="#F8B017"/>
<path d="M224.58 57.2924C224.233 57.2924 223.939 57.2027 223.7 57.0231C223.46 56.8436 223.274 56.5922 223.143 56.269C223.023 55.9458 222.963 55.5508 222.963 55.0839V46.7527H224.292V54.7967C224.292 55.3353 224.37 55.7124 224.526 55.9278C224.694 56.1433 224.945 56.251 225.28 56.251C225.592 56.251 225.903 56.1553 226.215 55.9637C226.538 55.7722 226.837 55.5268 227.113 55.2276V46.7527H228.424V57.1308H227.113V55.9817C226.778 56.3647 226.394 56.682 225.963 56.9333C225.532 57.1727 225.071 57.2924 224.58 57.2924Z" fill="#F8B017"/>
<path d="M230.654 57.1308V42.587H231.965V51.8161L235.433 46.7527H236.816L234.193 50.7567L236.708 57.1308H235.379L233.187 51.4929L231.965 53.1986V57.1308H230.654Z" fill="#F8B017"/>
</svg>
